Coordinates
version=1
nRows=11
nColumns=36
inDegrees=yes

Units are S.I. units (second, meters, Newtons, ...)
If the header above contains a line with 'inDegrees', this indicates whether rotational values are in degrees (yes) or radians (no).

endheader
time	pelvis_tilt	pelvis_list	pelvis_rotation	pelvis_tx	pelvis_ty	pelvis_tz	hip_flexion_r	hip_adduction_r	hip_rotation_r	knee_angle_r	knee_angle_r_beta	ankle_angle_r	subtalar_angle_r	mtp_angle_r	hip_flexion_l	hip_adduction_l	hip_rotation_l	knee_angle_l	knee_angle_l_beta	ankle_angle_l	subtalar_angle_l	mtp_angle_l	lumbar_extension	lumbar_bending	lumbar_rotation	arm_flex_r	arm_add_r	arm_rot_r	elbow_flex_r	pro_sup_r	arm_flex_l	arm_add_l	arm_rot_l	elbow_flex_l	pro_sup_l
      0.00000000	      1.28472210	     -3.53568753	     -0.09893441	     -0.95396695	      1.22742932	     -0.09831538	     -3.86068923	      3.62026152	     -0.03743992	      6.68615441	      0.11669541	      0.54265487	    -18.82103986	     -5.73246856	     -2.01177065	     -4.05133470	      0.28048894	      8.96977341	      0.15655208	     11.27542448	     -9.55143281	     -5.73246856	     -2.92878054	      4.61577737	     -1.65386332	      2.62818611	     -7.07618500	     10.67849210	     23.29415432	     78.29769859	      0.03829400	     -5.24311746	     13.29053346	     26.64848188	     71.40313772
      0.00416670	     -1.16570654	     -2.67718398	     -0.40183433	     -0.95187658	      1.22751391	     -0.09933952	     -0.90758864	      3.10946940	      0.63794065	      6.87303300	      0.11995706	      4.06025201	    -16.32043384	     -6.17165441	      1.08984198	     -2.36448754	      0.62312793	      9.22327429	      0.16097650	     11.37578730	     -8.08232437	     -6.17165441	      0.95244535	      3.80706828	     -1.50365575	      1.02991191	     -6.18086681	      4.70900938	     23.93369361	     80.91314272	     -0.74225086	     -4.18381347	      8.48708107	     25.92663594	     73.09134927
      0.00833330	     -2.02986793	     -1.64868473	     -0.81120379	     -0.95040794	      1.22144480	     -0.09823887	     -0.46523360	      1.86561069	     -0.36091524	      6.00141437	      0.10474444	      4.14479603	    -16.12851844	     -6.20854705	      1.72179891	     -1.28122618	     -0.52996304	      8.64199912	      0.15083134	     11.12285753	     -7.15666360	     -6.20854705	      2.51026930	      2.55602369	     -1.20378819	      0.41654133	     -5.78991371	      4.05990660	     24.59540999	     79.54436395	     -1.26551843	     -4.60973350	      8.13141986	     26.31525401	     72.18059784
      0.01250000	     -1.60674544	     -1.12627721	     -0.95592564	     -0.95172211	      1.22141041	     -0.09885445	     -1.09131420	      1.13020855	     -0.90831959	      5.57392179	      0.09728329	      5.04679138	    -15.75523848	     -6.42637488	      0.82407858	     -0.65773375	     -0.89248889	      7.86876653	      0.13733588	     11.36312665	     -6.66095802	     -6.42637488	      2.09928963	      1.88538507	     -0.58713951	      0.24239831	     -5.54639562	      3.15649845	     24.66442067	     78.64108090	     -0.76539279	     -5.12111662	     10.59281368	     25.79670423	     71.87732734
      0.01666670	     -1.35289607	     -0.92332689	     -0.95189998	     -0.95236282	      1.21936791	     -0.09847088	     -1.63323909	      0.92672153	     -1.04776360	      4.97023481	      0.08674696	      5.41736288	    -15.85584980	     -6.58589313	      0.26059776	     -0.37410625	     -0.72490420	      7.18854617	      0.12546380	     11.14825402	     -7.08768341	     -6.58589313	      1.81966159	      1.67205511	     -0.40138006	      0.12652525	     -5.52684329	      3.14534940	     25.17793713	     77.09194060	     -0.63719567	     -5.30317827	     11.25281197	     25.95038807	     70.72866814
      0.02083330	     -1.42177581	     -0.72676925	     -0.89619586	     -0.95095534	      1.22445828	     -0.09717110	     -1.55916952	      0.90321546	     -0.48050051	      4.65688312	      0.08127794	      5.45915488	    -15.59958158	     -6.58901125	      0.20188252	     -0.15566390	     -0.51133729	      7.08427094	      0.12364385	     11.05555747	     -7.02673474	     -6.58901125	      1.84776634	      1.40088687	     -0.33853441	      0.09416332	     -5.40781915	      3.21074969	     25.24807327	     77.13509269	     -0.53085768	     -5.39111680	     11.34461652	     25.99293055	     70.75339544
      0.02500000	     -0.97766188	     -0.68897045	     -0.84116959	     -0.95053183	      1.22241794	     -0.09688682	     -2.34308901	      0.95328816	      0.02727140	      3.98381513	      0.06953069	      5.50253883	    -15.01239562	     -6.80504212	     -0.58949307	     -0.15340677	     -0.23697251	      6.55125619	      0.11434099	     10.49500174	     -7.71668842	     -6.80504212	      1.35316586	      1.32032720	      0.16068317	     -0.27487271	     -5.64874956	      4.31075566	     25.89466053	     76.20301271	     -0.07712728	     -5.78882322	     13.85812724	     26.11074582	     70.05503734
      0.02916670	     -0.83993827	     -0.62634269	     -0.77865203	     -0.95076111	      1.22371995	     -0.09680443	     -2.61593034	      0.97239352	      0.52271312	      3.69392840	      0.06447121	      5.38238842	    -14.65203377	     -6.86005226	     -0.81130535	     -0.12455817	      0.00118294	      6.37903234	      0.11133512	     10.18007959	     -7.81151354	     -6.86005226	      1.14804450	      1.21303419	      0.22409428	     -0.30314007	     -5.63515019	      4.35762370	     26.06560487	     75.67005984	      0.07649423	     -5.82140293	     14.02765750	     26.21513629	     69.57453941
      0.03333330	     -0.79486175	     -0.60556006	     -0.70521423	     -0.95041024	      1.22117005	     -0.09647544	     -2.78049898	      1.02378765	      1.07625978	      3.43674831	      0.05998257	      5.28772661	    -14.62430300	     -6.99876223	     -0.87860075	     -0.13624733	      0.25945428	      6.31223789	      0.11016933	     10.05033439	     -7.91507976	     -6.99876223	      1.06593054	      1.16006204	      0.30943554	     -0.39958225	     -5.75769920	      5.04503014	     26.28938435	     75.62777594	      0.22980323	     -6.04150039	     15.13164796	     26.32016159	     69.15367252
      0.03750000	     -0.68701732	     -0.62226308	     -0.61275597	     -0.95121311	      1.22066007	     -0.09632727	     -3.01272564	      1.08128765	      1.18345513	      3.28995285	      0.05742051	      5.49623101	    -14.10018420	     -7.05171849	     -1.00572196	     -0.14282191	      0.56526604	      6.24905532	      0.10906659	      9.95632564	     -7.84272563	     -7.05171849	      0.83969207	      1.11262204	      0.26527443	     -0.38171443	     -5.75015493	      5.03457931	     26.50599700	     74.79295928	      0.36238930	     -6.12244862	     15.04014154	     26.45673945	     68.49087919
      0.04166670	     -0.57400559	     -0.68581848	     -0.62211848	     -0.95039199	      1.21556889	     -0.09564221	     -3.21502575	      1.15984844	      1.68851930	      3.18729444	      0.05562878	      5.25089813	    -14.98487115	     -7.06401561	     -1.12840798	     -0.25940997	      0.36800847	      6.30858138	      0.11010552	     10.17674841	     -7.78667014	     -7.06401561	      0.63101899	      1.14728716	      0.33633926	     -0.44371235	     -5.89728779	      5.46732018	     26.88683885	     75.20883603	      0.36726289	     -6.33012162	     15.45539736	     26.80952761	     68.58096060
